<svg xmlns="http://www.w3.org/2000/svg" viewBox="0 0 336.03373 261.66913"><defs><style>.a{fill:#e60012;}.b{fill:#231815;}</style></defs><title>key</title><path class="a" d="M12.58517,211.86C10.94823,211.86,0,219.96847,0,224.01c0,3.37871,3.25269,4.05635,5.0527,4.05635,8.31247,0,46.39761-12.7946,81.39247-22.08635,17.4-4.62,47.04-11.58,75.72-17.22,28.44327-5.59344,51.93-11.64,70.11-15.6-28.27862,4.23856-54.56817,8.65026-73.06875,11.835-24.31125,4.185-46.00125,8.145-55.00125,9.945-18,3.6-37.21553,7.78237-37.21553,7.78237l.16942-2.33789S20.77516,213.12,18.52516,213.12,14.22211,211.86,12.58517,211.86Z"/><path class="b" d="M75.04516,0c-.4207,0-5.836.212-9.9,10.68-1.485,3.825-7.11,20.325-7.56,62.625-.31785,29.87831,5.85,64.17,6.93,69.93,1.049,5.59473,8.07,37.49725,12.54071,46.581a.38824.38824,0,0,0,.71271-.04815,14.84233,14.84233,0,0,0,.74158-7.83285s-4.875-28.455-6.075-43.335-2.19-70.08-.03-86.64,5.175-41.235,4.935-46.515S75.46587,0,75.04516,0Z"/><path class="b" d="M133.48516,94.56c-.72-1.02-2.64777-.98623-5.52-.12-3.78,1.14-16.02,15.48-19.62,18.96s-23.46,22.08-29.82,27.36-22.26,16.68-25.98,19.08c-1.62468,1.04818-7.997,4.64124-15.028,9.42171-.902.61329-1.082,3.44829,1.23157,2.51854A154.16831,154.16831,0,0,1,65.32516,164.04c21.24-3.96,43.79617-2.12624,53.16-1.08,10.74,1.2,14.4.84,16.68.36s5.16-1.5,5.16-2.88c0-1.26-2.4-2.88-7.68-4.32a65.86512,65.86512,0,0,0-16.44-2.16c-5.04,0-23.1.66-33.42,2.46-7.41131,1.29267-21.20821,4.5049-25.93676,5.86022a.43758.43758,0,0,1-.38986-.76545c4.91452-3.88126,12.95537-10.91318,16.06662-13.19477,3.6-2.64,29.04-20.52,37.2-27.36s22.101-18.2093,23.34-21.6C134.24023,96.1443,134.20516,95.58,133.48516,94.56Z"/><path class="b" d="M170.47125,85.02783s-1.82609-.13044-3.13043,4.56521-2.34783,12.78261-2.34783,22.82609-3.3913,28.30435-3.913,30.65217a44.46268,44.46268,0,0,0-.52174,15.39131c.97011,5.42935.70108,5.21739,2.087,5.21739.913,0,3.39131-2.73913,3.65218-6.65217s.65217-19.69566.78261-25.17392,1.56521-20.47826,2.21739-24.26087a111.93575,111.93575,0,0,0,1.82609-13.69565C171.25386,89.72348,171.62886,85.02783,170.47125,85.02783Z"/><path class="a" d="M213.97125,88.093c-.71683-2.708-12.587-1.04347-15-.587s-13.69565,3.52174-19.95652,5.73913-8.15217,3.32608-11.47826,4.36956-8.413,2.80435-11.34783,5.67392-2.413,3.06521-2.15217,3.45652,3.913.65217,7.30435-1.1087,7.69565-4.5,11.54347-6.13043a63.715,63.715,0,0,1,16.36957-3.78261c3.48913-.163,13.5-.22826,15.913-1.04348C208.31317,93.61707,214.55821,90.31043,213.97125,88.093Z"/><path class="b" d="M203.08,112.38652c-.44716-1.22968-4.08852-1.80029-8.34783-1.30435a67.04359,67.04359,0,0,0-13.5163,2.894c-3.46659,1.33109-9.7337,4.08423-13.15761,4.96467s-9.78261,3.71739-10.76087,4.98913-2.05435,3.32609-1.36957,3.913,4.20652-.3913,6.55435-2.05434,7.14131-4.5,10.8587-5.47827,16.43478-2.05434,20.837-2.44565S203.86256,114.5387,203.08,112.38652Z"/><path class="b" d="M221.14516,137.46261c-.09674-2.80571-3.3913-3.13044-7.95652-2.86957a189.78789,189.78789,0,0,0-22.58152,3.81522c-4.43478,1.17391-18.78261,5.82065-22.69565,6.94565-3.78673,1.08869-8.85326,1.63044-11.33152,3.39131s-4.28519,3.9744-3.78261,4.72826c.29348.44022,9.29348.587,10.76087-.163,2.02836-1.03671,6.08152-4.63043,9.92935-6.19565s22.10545-4.859,25.5489-5.21739c3.80249-.39578,16.33768-.38309,18-.78261C218.80517,140.68969,221.21038,139.35391,221.14516,137.46261Z"/><path class="b" d="M211.29734,57.89739c-2.091,2.091,2.90821,8.96176,6.52174,12.65218,2.47289,2.5255,8.76587,8.77184,16.56521,15.65217,11.53566,10.17638,25.58506,21.74762,29.087,24.78261,5.86957,5.08695,20.34783,18.3913,21.13044,19.04348s2.087-1.17392.13043-5.2174-18-24.3913-24.52174-32.08695a153.59674,153.59674,0,0,0-13.01087-13.5c-8.45476-7.70786-18.36626-15.40111-22.20652-17.67391C218.60169,57.767,212.47125,56.72348,211.29734,57.89739Z"/><path class="b" d="M335.08,76.68c3,2.087-1.82609,13.82609-4.17392,17.21739a75.95941,75.95941,0,0,1-11.21739,12.26087c-4.69565,4.17391-21.62147,21.11026-27.913,28.43478-17.47826,20.34783-52.48682,71.88722-66.78261,91.82609-9.913,13.82609-15.913,24.26087-25.63043,35.25,11.2826-20.90217,42.32608-69.163,55.63043-89.51087s42-61.56522,49.30435-70.69565S329.3138,72.66877,335.08,76.68Z"/></svg>